<?xml version="1.0" standalone="no"?>
<!DOCTYPE svg PUBLIC "-//W3C//DTD SVG 20010904//EN"
 "http://www.w3.org/TR/2001/REC-SVG-20010904/DTD/svg10.dtd">
<svg version="1.0" xmlns="http://www.w3.org/2000/svg"
 width="1411.000000pt" height="892.000000pt" viewBox="0 0 1411.000000 892.000000"
 preserveAspectRatio="xMidYMid meet">

<g transform="translate(0.000000,892.000000) scale(0.100000,-0.100000)"
fill="#000000" stroke="none">
<path d="M7221 8794 c-7 -16 -17 -64 -22 -106 -11 -110 -67 -215 -125 -232
-16 -5 -28 5 -62 51 -41 56 -42 59 -42 139 0 62 -4 87 -16 98 -8 9 -19 16 -23
16 -13 0 -36 -33 -60 -87 -21 -46 -23 -59 -15 -120 10 -85 8 -167 -6 -193 -15
-27 -46 -25 -77 6 -25 25 -26 28 -18 107 11 121 7 156 -24 224 -28 59 -61 91
-81 78 -6 -3 -10 -30 -10 -58 0 -112 -39 -242 -93 -312 -15 -20 -16 -20 -47
10 -47 45 -76 102 -90 178 -7 37 -20 77 -29 88 -45 56 -78 -70 -68 -267 6
-100 4 -113 -12 -128 -10 -9 -25 -14 -33 -11 -26 10 -58 92 -58 149 0 64 -29
164 -62 212 -20 29 -70 64 -93 64 -4 0 -5 -28 -1 -62 23 -213 20 -236 -37
-284 -26 -21 -38 -25 -70 -21 -57 8 -75 32 -98 130 -15 63 -26 90 -41 98 -28
15 -44 -2 -53 -59 -13 -83 -10 -116 18 -176 l27 -59 -32 -54 -32 -53 -22 21
c-15 14 -28 47 -39 98 -24 106 -51 165 -96 206 -22 19 -43 35 -48 35 -5 0 -16
3 -25 6 -21 8 -22 -44 -1 -123 25 -95 16 -227 -18 -261 -37 -36 -114 27 -175
142 -42 80 -62 97 -87 76 -14 -12 -17 -27 -13 -90 5 -73 12 -96 64 -190 24
-44 31 -103 15 -128 -4 -8 -21 -12 -37 -10 -35 4 -73 56 -110 153 -54 142
-222 252 -198 130 3 -16 18 -55 32 -85 23 -47 27 -68 27 -147 0 -110 -12 -130
-68 -119 -40 8 -162 127 -173 170 -9 38 -43 54 -61 30 -28 -38 6 -148 72 -238
57 -76 75 -130 52 -153 -13 -13 -21 -14 -39 -6 -46 21 -86 64 -113 120 -42 90
-119 159 -199 177 -28 7 -28 6 -23 -24 4 -17 18 -47 32 -68 52 -75 92 -266 61
-291 -31 -26 -93 -4 -168 63 -120 104 -125 107 -136 93 -17 -22 21 -108 101
-225 80 -117 93 -155 61 -186 -37 -38 -98 -6 -166 86 -82 110 -198 180 -247
149 -18 -12 -6 -47 31 -89 45 -52 76 -105 98 -171 25 -74 25 -76 0 -101 -37
-37 -80 -27 -185 45 -52 36 -104 65 -116 65 -19 0 -21 -4 -14 -37 14 -74 53
-127 157 -209 55 -44 68 -60 68 -83 0 -32 -27 -61 -56 -61 -40 0 -121 50 -168
105 -56 65 -109 95 -180 101 -92 9 -92 -5 6 -102 102 -102 131 -151 126 -221
-3 -48 -3 -48 -41 -51 -55 -5 -136 22 -203 68 -67 45 -67 45 -88 24 -14 -14
-14 -19 5 -55 33 -65 89 -120 157 -152 93 -44 128 -101 85 -139 -49 -43 -114
-29 -198 43 -83 71 -130 91 -207 87 -35 -2 -63 -8 -65 -15 -6 -17 55 -81 96
-103 44 -23 89 -70 124 -132 34 -58 34 -82 2 -96 -50 -23 -122 -14 -206 24
-129 57 -155 28 -68 -75 59 -71 69 -78 169 -111 71 -24 75 -27 78 -57 3 -31 1
-33 -28 -33 -43 0 -94 23 -142 64 -22 19 -61 42 -86 50 -46 16 -143 20 -174 8
-16 -6 -15 -10 8 -39 13 -17 49 -46 78 -63 86 -49 153 -135 131 -169 -4 -8
-192 -11 -593 -11 -500 -1 -597 -3 -657 -17 -60 -13 -184 -16 -871 -19 -787
-3 -803 -4 -858 -24 -73 -28 -113 -62 -127 -110 -24 -78 45 -194 158 -267 29
-18 53 -37 53 -42 0 -5 -14 -14 -30 -21 -41 -17 -87 -71 -101 -119 -19 -64 -5
-104 62 -176 66 -70 120 -101 277 -156 51 -17 97 -38 103 -45 8 -10 9 -25 0
-56 -9 -38 -8 -49 14 -94 31 -64 109 -138 178 -169 29 -13 95 -36 147 -51 132
-37 130 -36 130 -95 0 -69 23 -113 84 -162 109 -86 259 -136 408 -137 47 0 80
-4 84 -11 4 -7 7 -42 8 -79 1 -81 9 -92 111 -155 109 -68 175 -86 350 -94 82
-4 159 -12 170 -18 11 -6 33 -29 49 -50 16 -22 46 -51 65 -65 38 -27 118 -58
151 -58 10 0 39 -18 64 -40 55 -46 97 -57 173 -41 61 12 183 13 222 2 44 -12
49 -36 16 -72 -43 -45 -71 -56 -157 -62 -52 -4 -96 -14 -133 -31 -67 -30 -125
-73 -125 -92 0 -24 42 -33 101 -22 99 18 267 -9 300 -48 10 -13 9 -22 -6 -50
-35 -66 -129 -122 -232 -139 -45 -7 -62 -30 -40 -52 7 -8 48 -16 94 -20 77 -6
85 -4 147 26 71 34 157 42 191 18 18 -14 18 -15 -1 -53 -25 -51 -70 -80 -136
-87 -98 -12 -240 -104 -250 -162 -5 -29 30 -31 125 -5 107 29 190 29 245 1
l43 -22 -22 -37 c-46 -76 -60 -90 -127 -125 -37 -20 -77 -46 -87 -57 -19 -22
-19 -22 0 -36 47 -34 169 -10 269 54 80 51 156 38 156 -28 0 -33 -69 -95 -127
-114 -87 -29 -233 -158 -233 -207 0 -20 59 -7 130 27 69 34 81 36 160 35 114
-2 120 -4 120 -49 0 -54 -28 -91 -121 -163 -46 -36 -85 -73 -87 -83 -4 -17 1
-18 69 -12 91 9 124 23 169 71 42 44 71 60 125 69 54 9 78 -8 67 -49 -7 -25
-25 -39 -103 -82 -101 -55 -144 -91 -185 -153 -26 -39 -26 -80 -1 -80 7 0 53
21 104 46 75 38 105 47 160 51 81 6 123 -7 123 -38 0 -35 -67 -135 -121 -179
-27 -23 -54 -51 -60 -62 -38 -71 149 -27 232 55 39 38 108 77 137 77 24 0 42
-19 42 -45 0 -32 -62 -99 -124 -134 -55 -31 -92 -75 -135 -158 -41 -82 6 -98
91 -30 29 24 68 52 86 61 45 23 127 37 174 30 l40 -7 -6 -39 c-9 -56 -47 -126
-100 -185 -81 -90 -54 -118 60 -64 43 20 76 46 113 89 55 63 127 110 154 99
46 -17 1 -118 -88 -199 -71 -65 -115 -142 -115 -200 0 -34 3 -38 24 -38 40 0
56 11 76 51 32 62 103 103 212 123 45 8 68 -12 68 -60 0 -46 -23 -98 -61 -142
-37 -42 -69 -109 -62 -129 18 -47 179 52 224 139 30 59 89 109 124 106 26 -3
30 -8 33 -35 4 -39 -28 -104 -78 -159 -56 -61 -70 -86 -80 -145 -4 -30 -11
-61 -15 -70 -8 -20 19 -49 46 -49 13 0 29 16 47 47 47 81 81 112 166 152 44
21 93 42 108 45 25 6 28 3 35 -31 16 -77 7 -135 -31 -210 -20 -40 -36 -87 -36
-104 0 -29 2 -31 26 -25 63 16 153 119 175 200 23 87 59 96 139 36 68 -51 113
-64 175 -50 26 6 60 17 76 25 44 23 54 19 85 -42 53 -104 145 -144 273 -117
102 21 108 20 172 -41 32 -31 74 -62 93 -70 58 -25 126 -19 191 15 31 17 64
30 74 30 9 0 37 -22 63 -49 79 -82 185 -103 284 -57 28 13 55 29 58 35 14 22
62 11 114 -28 62 -47 128 -64 191 -50 54 12 67 19 120 64 49 40 80 44 107 14
76 -84 205 -74 322 25 52 43 76 45 157 11 63 -26 135 -32 180 -15 15 6 56 38
91 72 l64 62 58 -19 c136 -43 220 -16 303 97 55 76 68 81 140 48 63 -28 103
-25 190 16 43 20 84 34 92 31 8 -3 27 -41 41 -85 34 -101 78 -167 135 -203 85
-55 102 -32 50 67 -26 53 -31 73 -36 170 -4 77 -2 117 6 132 l12 23 33 -21
c18 -11 42 -20 53 -20 30 0 67 -34 98 -87 36 -62 64 -93 86 -93 24 0 29 22 19
83 -12 73 -30 113 -79 172 -65 78 -66 145 -2 145 37 0 82 -50 116 -128 19 -42
44 -77 74 -104 54 -47 117 -82 137 -74 22 8 17 49 -11 87 -58 80 -77 131 -83
214 -6 106 4 116 86 90 55 -17 94 -48 158 -128 22 -26 69 -45 81 -33 9 9 -13
91 -39 144 -11 23 -49 74 -84 112 -53 58 -64 76 -64 104 0 38 36 76 72 76 27
0 91 -64 141 -140 36 -55 52 -70 114 -103 82 -44 113 -43 113 1 0 19 -20 49
-68 101 l-67 75 0 90 0 91 52 -1 c59 -2 102 -24 173 -90 85 -78 117 -66 84 34
-16 50 -32 70 -121 156 -57 55 -103 108 -103 117 0 27 30 38 75 30 60 -11 93
-33 165 -106 50 -50 76 -69 114 -80 50 -15 136 -20 136 -9 0 18 -45 74 -90
112 -52 45 -100 124 -125 209 l-13 43 88 0 c84 0 90 -1 141 -36 101 -68 129
-74 129 -28 0 57 -79 142 -179 195 -35 18 -70 44 -79 57 -14 21 -14 26 1 57
31 65 80 56 208 -36 95 -67 168 -95 222 -85 20 4 39 11 42 16 10 17 -14 47
-58 73 -58 34 -121 104 -154 172 -39 80 -30 90 79 89 73 -1 94 -5 152 -32 109
-51 129 -18 44 73 -39 42 -79 70 -153 108 -88 46 -100 55 -103 81 -8 66 60 63
142 -5 72 -61 114 -81 172 -81 42 0 101 10 117 19 15 9 -35 62 -87 92 -56 31
-109 87 -152 158 l-24 41 31 26 c39 33 75 33 176 1 91 -28 163 -41 163 -29 0
19 -64 101 -98 125 -21 14 -62 34 -92 44 -128 41 -180 96 -129 138 30 24 89
17 139 -18 87 -60 244 -75 298 -30 15 13 -34 52 -118 96 -114 60 -170 107
-170 145 0 73 51 91 197 67 75 -12 108 -14 125 -6 23 11 22 12 -32 63 -62 59
-93 75 -165 85 -63 8 -139 44 -143 68 -11 59 81 74 192 32 37 -14 84 -25 106
-25 61 0 136 19 155 40 16 17 15 19 -7 33 -12 9 -52 21 -87 27 -61 11 -153 49
-165 69 -13 20 27 30 177 40 90 6 171 17 190 25 17 8 54 37 80 65 27 29 66 60
87 71 49 25 161 44 216 36 62 -8 140 9 252 55 139 58 182 106 182 206 0 27 5
54 12 61 7 7 42 12 88 12 180 0 398 102 458 214 9 17 19 56 22 86 l5 55 148
52 c202 71 245 96 280 165 21 40 30 75 34 130 l6 75 81 22 c126 34 221 85 297
162 69 68 96 121 85 164 -8 33 -59 89 -113 126 -24 17 -41 35 -37 40 3 5 26
19 50 30 50 24 130 107 152 159 18 44 11 123 -15 158 -30 42 -100 71 -194 83
-51 6 -394 9 -869 8 -689 -1 -792 1 -840 15 -47 13 -132 16 -587 16 -347 0
-534 4 -538 10 -14 23 10 48 105 109 55 35 99 69 97 75 -10 32 -157 6 -287
-51 -35 -15 -69 -23 -95 -21 -37 3 -40 6 -43 34 -7 70 29 106 145 145 66 22
138 77 172 133 48 77 12 92 -96 40 -72 -35 -85 -38 -170 -38 -142 -1 -152 22
-65 137 20 26 59 62 85 79 43 27 76 72 63 85 -2 3 -22 7 -44 10 -56 8 -121
-17 -200 -75 -112 -82 -148 -92 -178 -47 -28 43 -8 68 99 119 75 36 105 57
150 106 47 50 57 68 57 96 0 32 -2 34 -27 28 -16 -4 -65 -27 -111 -51 -81 -42
-85 -43 -177 -43 l-95 0 0 33 c0 50 52 130 119 181 83 64 94 106 26 106 -62 0
-141 -38 -210 -101 -48 -43 -73 -59 -94 -59 -48 0 -61 9 -61 45 0 39 41 80
120 120 53 27 84 62 124 143 21 41 24 57 16 72 -19 36 -61 20 -131 -47 -53
-53 -186 -91 -225 -65 -18 11 -34 49 -34 77 0 38 15 62 86 137 86 89 84 135
-5 103 -71 -25 -99 -44 -179 -125 -82 -84 -108 -95 -147 -66 -27 20 -14 41 99
165 100 109 130 162 124 222 -2 27 -8 35 -26 37 -18 3 -36 -10 -75 -51 -29
-30 -71 -69 -95 -85 -48 -34 -130 -57 -168 -48 -25 7 -26 8 -19 69 8 69 20 98
76 176 69 96 43 123 -60 64 -51 -30 -74 -52 -109 -103 -69 -102 -91 -121 -132
-118 -32 3 -35 6 -38 39 -3 30 7 49 63 128 37 51 73 107 81 126 15 36 19 140
6 149 -18 11 -72 -25 -91 -61 -33 -65 -79 -99 -204 -152 -27 -12 -51 -21 -53
-21 -2 0 -4 42 -4 94 0 86 2 97 25 124 30 36 45 74 45 113 0 37 -14 37 -72 0
-54 -34 -84 -72 -128 -161 -39 -80 -57 -100 -85 -100 -31 0 -45 19 -45 63 0
46 11 68 63 127 22 25 46 59 53 77 14 33 19 148 8 177 -14 37 -43 16 -93 -68
-28 -46 -69 -100 -90 -119 -42 -38 -116 -65 -139 -50 -12 7 -30 47 -49 106 -3
10 9 50 27 89 31 68 42 120 27 135 -14 14 -57 -18 -98 -72 -30 -40 -49 -81
-66 -138 -29 -101 -55 -130 -117 -125 l-41 3 1 72 c1 55 7 80 23 105 48 75 54
99 48 187 -7 91 -23 124 -53 106 -9 -6 -32 -50 -51 -97 -30 -76 -44 -96 -99
-148 -36 -33 -73 -60 -82 -60 -23 0 -42 19 -42 41 0 9 -7 22 -15 29 -25 20
-27 71 -6 138 23 75 16 112 -22 112 -20 0 -30 -14 -65 -87 -23 -49 -46 -118
-53 -156 -6 -37 -19 -77 -29 -89 -16 -20 -21 -21 -44 -10 -15 7 -34 28 -42 48
-14 32 -13 45 8 144 20 98 21 116 10 190 -14 98 -16 102 -47 88 -23 -10 -32
-36 -60 -173 -3 -11 -33 -51 -67 -88 -72 -78 -84 -80 -123 -12 -22 37 -25 54
-25 138 0 111 -4 127 -34 127 -16 0 -31 -16 -56 -57 -33 -54 -35 -64 -40 -168
-5 -120 -21 -160 -66 -171 -59 -15 -75 42 -61 209 12 140 3 181 -51 246 l-28
33 -13 -28z m50 -89 c18 -40 19 -58 13 -178 -6 -112 -4 -141 11 -186 9 -29 15
-54 13 -57 -3 -2 -44 -9 -92 -15 -75 -9 -90 -8 -112 5 -45 30 -32 75 47 163
29 32 38 50 38 75 -1 18 8 70 20 115 11 45 21 91 21 102 0 35 20 23 41 -24z
m-571 -225 c0 -72 4 -88 35 -150 23 -45 31 -71 24 -76 -23 -14 -178 -17 -194
-4 -25 21 -19 75 14 112 52 60 91 131 91 165 0 23 5 33 15 33 12 0 15 -16 15
-80z m1390 4 c-11 -63 -8 -92 17 -197 20 -79 11 -117 -28 -131 -31 -11 -88 -1
-115 19 -18 14 -18 16 18 47 51 46 58 65 58 163 0 47 5 96 11 108 14 26 41 58
45 54 2 -2 -1 -30 -6 -63z m-1112 24 c26 -29 41 -68 53 -138 8 -49 6 -56 -13
-77 -18 -19 -32 -23 -81 -23 -57 0 -59 1 -53 23 3 12 18 70 33 130 15 59 30
107 34 107 3 0 15 -10 27 -22z m832 -88 c-16 -30 -12 -84 10 -135 35 -81 25
-91 -78 -75 -90 14 -100 18 -107 40 -9 28 10 58 94 151 69 75 75 80 83 60 4
-13 4 -30 -2 -41z m-250 -22 c55 -116 38 -145 -90 -155 -71 -5 -82 -4 -74 9
51 84 129 208 132 208 1 0 16 -28 32 -62z m825 -64 c-59 -111 -64 -132 -39
-194 22 -56 13 -74 -34 -67 -58 8 -149 46 -157 65 -5 13 24 46 114 132 73 70
125 127 131 147 8 21 16 30 26 26 11 -4 2 -28 -41 -109z m-1934 49 c89 -75 58
-183 -53 -183 -56 0 -58 7 -25 113 17 53 34 97 38 97 4 0 22 -12 40 -27z
m-296 -32 c9 -27 34 -70 56 -94 44 -51 51 -80 17 -75 -14 2 -44 31 -80 78 -32
41 -58 78 -58 81 0 7 40 59 45 59 2 0 11 -22 20 -49z m-557 7 c6 -18 13 -55
16 -81 7 -62 37 -129 76 -174 17 -19 29 -40 27 -46 -5 -18 -119 -77 -142 -74
-42 5 -46 43 -19 172 17 82 24 138 21 178 -6 63 6 76 21 25z m468 -94 c35 -17
95 -90 113 -136 21 -56 -25 -140 -95 -173 -49 -23 -100 -8 -144 41 -26 30 -31
43 -28 76 6 78 92 104 125 38 12 -24 11 -25 -28 -28 -47 -4 -60 -24 -34 -52
34 -37 115 -13 133 39 22 64 -45 151 -116 151 -113 0 -177 -127 -119 -240 29
-58 71 -80 156 -80 53 0 62 -2 57 -16 -3 -9 -6 -33 -6 -55 0 -38 -1 -39 -37
-39 -78 0 -204 83 -243 159 -29 59 -33 96 -15 156 19 68 65 121 130 151 59 28
104 30 151 8z m1469 -79 c494 -59 1009 -220 1408 -440 734 -404 1300 -977
1668 -1693 38 -73 69 -140 69 -148 0 -8 -11 -20 -25 -26 -46 -21 -66 0 -144
150 -261 502 -632 936 -1104 1290 -291 218 -564 371 -903 506 -266 105 -689
218 -869 231 -44 4 -143 14 -220 23 -164 19 -521 20 -695 3 -63 -6 -185 -23
-270 -38 -207 -36 -212 -36 -220 3 -9 40 4 72 33 83 49 19 390 65 532 72 217
10 590 3 740 -16z m1105 -41 c11 -45 11 -65 1 -102 -7 -26 -16 -51 -20 -55 -5
-5 -27 -4 -50 2 -22 6 -59 16 -81 21 -49 13 -45 34 11 57 46 18 85 61 94 103
10 47 30 36 45 -26z m283 -21 c-4 -10 -20 -36 -36 -58 -27 -38 -29 -44 -24
-113 7 -89 0 -94 -86 -63 -71 25 -97 46 -97 76 0 32 16 48 110 108 113 71 146
84 133 50z m-3522 -29 c35 -20 54 -39 69 -69 11 -23 20 -46 20 -52 0 -16 -111
-93 -132 -93 -22 0 -23 17 -3 63 19 46 19 84 0 121 -15 29 -20 56 -9 56 4 0
28 -12 55 -26z m1959 -69 c580 -53 951 -155 1430 -395 395 -198 700 -418 1005
-724 177 -178 327 -361 470 -576 203 -305 281 -459 355 -703 62 -208 62 -207
-48 -207 l-77 0 -44 138 c-147 463 -386 829 -825 1267 -221 221 -391 354 -646
507 -481 289 -985 456 -1525 504 -381 34 -504 29 -1031 -38 -138 -17 -259 -28
-269 -25 -15 6 -17 15 -11 63 7 64 18 89 42 98 44 17 440 77 566 86 314 23
406 23 608 5z m-2255 -14 c6 -21 132 -145 155 -153 8 -3 13 -7 10 -10 -16 -14
-139 -87 -151 -88 -66 -10 -76 22 -53 163 16 104 26 127 39 88z m4023 -143
c-6 -80 -25 -108 -72 -108 -33 0 -109 45 -104 61 2 5 39 40 83 78 93 81 100
79 93 -31z m335 60 c-6 -13 -41 -56 -76 -96 -69 -77 -86 -120 -72 -182 6 -28
5 -30 -22 -30 -28 0 -173 84 -173 100 0 16 111 90 193 129 69 33 93 50 114 82
18 27 29 37 36 30 7 -7 7 -18 0 -33z m-3713 13 c31 -58 7 -79 -177 -156 -359
-151 -659 -332 -943 -569 -393 -328 -698 -694 -936 -1121 -91 -165 -125 -211
-159 -219 -32 -8 -65 9 -65 34 0 21 85 182 191 360 437 738 1087 1299 1899
1641 126 53 173 60 190 30z m-790 -145 c47 -27 55 -35 55 -61 0 -24 -9 -36
-54 -67 -30 -21 -59 -38 -64 -38 -5 0 -7 18 -3 44 6 35 2 57 -19 108 -15 34
-31 75 -35 90 -8 27 -8 27 28 -9 20 -20 62 -50 92 -67z m-377 56 c9 -9 33 -56
55 -103 41 -88 75 -125 136 -149 l29 -11 -48 -49 c-65 -66 -98 -68 -124 -9
-13 27 -17 54 -13 84 5 53 -13 134 -44 197 -13 26 -24 50 -24 53 0 11 18 4 33
-13z m1366 -88 c75 -35 92 -47 80 -54 -9 -6 -77 -31 -150 -56 -386 -134 -752
-337 -1078 -598 -157 -125 -429 -396 -545 -541 -85 -108 -246 -343 -340 -498
-59 -96 -85 -112 -170 -103 -32 3 -62 8 -65 11 -25 25 218 415 431 690 107
137 341 382 473 493 235 198 532 396 770 513 230 114 442 200 474 193 13 -3
67 -25 120 -50z m1312 31 c199 -19 488 -59 617 -86 113 -23 514 -154 662 -216
517 -216 1042 -634 1406 -1118 132 -175 290 -427 279 -445 -12 -20 -90 -12
-117 13 -13 12 -77 101 -140 197 -154 232 -262 365 -437 540 -175 174 -313
287 -521 425 -483 320 -939 489 -1515 560 -362 45 -832 18 -1208 -71 -130 -31
-139 -29 -151 31 -13 60 -6 63 310 116 426 71 546 79 815 54z m2334 -192 c-6
-51 -54 -139 -80 -150 -12 -4 -153 95 -154 108 -1 4 19 9 44 12 68 10 114 33
133 68 9 17 26 43 37 57 l20 27 3 -35 c2 -19 1 -58 -3 -87z m-3527 35 c5 -7 7
-32 3 -56 l-6 -44 -110 -37 c-542 -185 -1076 -538 -1441 -952 -147 -167 -205
-243 -339 -444 -104 -156 -124 -180 -149 -183 -37 -5 -76 5 -76 19 0 6 31 64
69 128 419 707 1075 1242 1871 1527 164 59 164 58 178 42z m1367 -23 c253 -27
458 -70 692 -146 379 -123 774 -334 1083 -578 140 -111 444 -418 554 -561 84
-108 276 -389 276 -404 0 -3 -261 -6 -580 -6 -319 0 -580 2 -580 5 0 3 13 32
29 64 45 87 68 164 85 284 19 131 49 199 112 257 54 49 114 78 181 86 61 7
113 23 113 34 0 19 -52 48 -125 69 -64 19 -94 23 -175 19 -91 -3 -104 -7 -183
-46 -148 -73 -203 -157 -262 -398 -40 -165 -62 -210 -128 -271 -101 -93 -175
-113 -419 -113 -103 0 -188 3 -188 7 0 3 29 50 65 102 162 242 197 411 156
753 -25 208 -26 269 -6 307 7 15 64 72 125 126 60 55 110 102 110 105 0 32
-156 42 -244 16 -62 -19 -165 -86 -216 -143 -97 -104 -125 -226 -99 -424 32
-242 10 -336 -110 -462 -58 -61 -77 -75 -87 -66 -27 22 -16 57 25 83 52 33 68
79 46 133 -43 102 -356 633 -432 731 -183 238 -185 244 -109 321 45 45 59 80
34 82 -40 3 -75 -6 -126 -33 -48 -25 -64 -29 -106 -24 -46 5 -176 70 -176 88
0 20 484 22 665 3z m2505 -16 c0 -13 -43 -53 -109 -102 -51 -37 -80 -86 -89
-154 -5 -31 -13 -49 -22 -51 -9 -1 -42 19 -75 46 -104 83 -88 120 75 172 52
17 120 46 150 65 58 38 70 42 70 24z m-3420 -27 c0 -5 -9 -35 -20 -68 -104
-298 -98 -619 16 -957 47 -142 44 -185 -19 -286 l-34 -53 -17 23 c-9 13 -16
30 -16 38 0 27 -87 196 -142 276 -30 44 -60 90 -67 103 -7 14 -18 122 -26 276
-7 140 -21 320 -31 400 -15 133 -16 149 -2 163 9 8 85 33 170 54 161 40 188
44 188 31z m262 -40 c161 -82 286 -192 415 -365 73 -99 79 -111 65 -134 -4 -7
-118 -75 -252 -151 -446 -252 -448 -253 -469 -213 -6 10 -24 106 -40 212 -30
189 -30 197 -16 300 21 160 73 338 112 381 28 32 83 23 185 -30z m-2216 -42
c3 0 9 -12 14 -26 12 -30 -4 -65 -48 -108 -36 -34 -52 -28 -52 20 0 45 -20 92
-59 136 -17 19 -28 38 -25 41 3 3 42 -10 86 -29 44 -19 82 -34 84 -34z m1530
-31 c4 -7 13 -116 20 -243 8 -127 20 -287 28 -356 8 -69 13 -127 11 -129 -5
-5 -65 28 -135 74 -33 22 -81 54 -107 70 -95 60 -121 151 -100 337 8 68 13
125 11 127 -6 7 -51 -9 -84 -31 -45 -31 -72 -72 -109 -168 -43 -113 -54 -186
-41 -262 24 -132 91 -237 208 -325 149 -111 225 -196 252 -278 19 -58 15 -315
-6 -335 -13 -13 -27 -12 -122 13 -59 15 -128 27 -154 27 -65 0 -88 11 -192 89
-162 122 -268 170 -450 201 -137 23 -153 29 -192 72 -56 59 -114 198 -114 272
-1 135 -87 51 -126 -123 -50 -220 45 -395 281 -517 52 -27 95 -53 95 -57 0 -4
-198 -6 -440 -5 -485 3 -479 2 -464 63 10 39 163 266 270 400 118 147 350 377
505 501 304 244 668 451 964 550 134 45 179 52 191 33z m-1860 -139 c16 -14
46 -32 65 -39 18 -7 47 -18 64 -25 l30 -13 -60 -57 c-60 -56 -99 -76 -115 -60
-10 11 -50 177 -50 209 0 29 20 25 66 -15z m5781 -8 c-10 -48 -47 -139 -68
-166 -11 -14 -28 -26 -38 -26 -10 0 -44 24 -77 54 l-59 53 45 7 c77 12 105 25
145 66 46 47 60 50 52 12z m-1792 -32 c4 -6 -29 -45 -72 -88 -117 -114 -124
-156 -72 -408 26 -126 30 -163 26 -239 -10 -163 -88 -368 -204 -540 -39 -57
-56 -73 -90 -85 -38 -13 -48 -13 -84 0 -34 12 -47 25 -68 65 -15 28 -35 64
-45 81 -24 40 -16 74 24 97 16 10 59 47 94 83 84 83 132 178 148 291 11 74 10
97 -11 221 -21 132 -22 142 -6 207 32 139 90 209 230 279 93 46 119 54 130 36z
m2115 -93 c0 -7 -36 -35 -80 -62 -93 -56 -134 -98 -151 -155 -7 -22 -15 -40
-18 -40 -20 1 -100 73 -119 108 l-23 41 28 14 c15 8 67 20 114 25 59 8 110 22
165 46 93 42 84 39 84 23z m-4591 -135 c2 -139 17 -158 234 -297 190 -122 179
-97 206 -465 27 -360 27 -377 2 -385 -33 -10 -71 5 -78 33 -3 13 -1 64 5 113
28 227 -49 392 -241 516 -156 101 -237 232 -237 383 0 54 53 210 78 228 15 11
18 10 23 -15 4 -15 7 -65 8 -111z m-1678 83 c100 -21 128 -51 99 -105 -9 -17
-69 -60 -84 -60 -3 0 -6 15 -6 32 0 27 -11 43 -61 90 -68 65 -66 68 52 43z
m-315 -113 c16 -16 42 -45 57 -65 33 -43 92 -76 154 -86 l43 -6 -52 -70 c-41
-53 -59 -70 -78 -70 -22 0 -29 13 -75 125 -27 69 -63 142 -79 163 -35 45 -13
52 30 9z m3591 -87 c29 -51 29 -76 1 -102 -35 -31 -689 -373 -714 -373 -25 0
-54 39 -54 73 0 39 35 76 90 97 80 30 316 157 465 250 88 55 167 99 175 98 8
-2 25 -21 37 -43z m3002 -94 c-14 -61 -71 -117 -106 -104 -8 3 -32 29 -53 57
l-39 51 59 6 c39 4 72 14 97 31 33 22 39 23 44 9 3 -8 2 -31 -2 -50z m-2909
-83 c19 -65 56 -132 136 -251 41 -60 74 -112 74 -117 0 -14 -31 -40 -48 -40
-9 0 -31 14 -49 32 l-32 31 -11 -26 c-5 -15 -14 -38 -19 -51 -7 -17 -27 -31
-68 -46 -112 -43 -170 -28 -268 67 -98 96 -132 201 -77 243 60 48 308 198 328
199 16 1 24 -8 34 -41z m3248 -20 c-3 -7 -40 -28 -84 -46 -101 -42 -141 -74
-164 -128 -11 -24 -23 -44 -28 -44 -23 0 -93 74 -103 111 -20 65 -6 72 163 79
108 4 150 9 173 22 36 21 48 22 43 6z m-6914 -34 c68 -10 78 -35 41 -103 -16
-28 -33 -51 -39 -51 -20 0 -33 14 -40 42 -4 17 -26 42 -56 65 -27 20 -47 40
-44 45 6 10 73 10 138 2z m5434 -30 c36 -10 26 -21 -47 -49 -74 -28 -146 -84
-181 -140 -12 -19 -30 -78 -41 -132 -39 -199 -63 -290 -90 -351 -38 -85 -59
-93 -213 -85 l-116 6 49 52 c61 64 83 107 116 226 84 304 140 392 291 454 59
25 175 34 232 19z m-5652 -233 c22 -5 53 -11 69 -13 24 -2 31 -8 33 -30 4 -35
-30 -100 -64 -123 -46 -30 -65 -11 -122 123 -29 66 -52 126 -52 133 0 6 22 -9
49 -34 28 -27 65 -50 87 -56z m3392 77 c7 -7 12 -26 12 -43 0 -45 17 -95 41
-121 12 -13 52 -35 88 -49 71 -28 108 -51 98 -61 -16 -17 -90 -4 -156 26 -141
65 -204 177 -135 238 29 25 35 27 52 10z m-2148 -56 c0 -32 54 -123 96 -162
59 -55 110 -76 214 -90 47 -6 120 -23 164 -38 75 -24 229 -111 271 -153 24
-23 19 -28 -62 -59 -124 -47 -233 -33 -443 55 -139 59 -194 96 -235 159 -62
95 -83 244 -45 316 12 23 13 23 26 5 8 -10 14 -25 14 -33z m1514 -74 c86 -184
109 -251 102 -291 -4 -19 -13 -40 -21 -47 -19 -16 -19 -54 0 -70 8 -7 15 -23
15 -36 0 -18 -7 -25 -27 -30 -16 -3 -34 -8 -41 -10 -21 -6 -52 15 -62 42 -5
13 -17 122 -26 242 -9 119 -18 238 -21 265 -4 39 -2 47 12 47 11 0 33 -36 69
-112z m4356 11 c-10 -29 -29 -62 -41 -75 -29 -31 -78 -32 -106 -1 -18 19 -63
98 -63 110 0 2 23 -1 50 -7 40 -8 63 -7 108 6 31 8 60 16 64 17 5 0 -1 -22
-12 -50z m140 -142 l85 -12 -47 -27 c-56 -34 -123 -108 -138 -154 -7 -19 -16
-32 -21 -28 -10 6 -72 125 -89 170 -8 21 -5 27 23 44 36 22 66 24 187 7z
m-3248 -41 c19 -43 -5 -70 -41 -47 -12 8 -12 14 -1 40 15 37 27 39 42 7z
m-4030 -10 c8 -20 7 -32 -9 -62 -11 -21 -24 -39 -30 -41 -6 -2 -39 20 -74 48
-35 29 -66 54 -68 55 -1 1 0 7 4 13 3 6 40 11 86 11 74 0 80 -2 91 -24z m3542
-114 c44 -12 89 -30 102 -43 14 -13 36 -61 55 -118 43 -131 81 -211 113 -241
37 -34 89 -31 189 9 97 39 162 40 270 6 120 -38 230 -54 461 -65 356 -17 388
-24 576 -119 195 -99 196 -99 730 -142 146 -11 301 -25 345 -30 44 -5 119 -9
168 -9 199 0 244 43 246 231 1 71 22 95 44 52 48 -93 80 -315 58 -395 -10 -36
-10 -56 3 -112 21 -87 21 -84 -17 -91 -47 -9 -86 10 -142 69 -75 78 -180 106
-290 78 -22 -6 -74 -13 -115 -17 -41 -4 -181 -20 -310 -37 -234 -30 -450 -43
-895 -54 -198 -5 -215 -4 -289 18 -100 29 -110 43 -74 106 19 34 24 52 17 64
-15 27 -37 11 -79 -61 -92 -159 -263 -349 -523 -584 -123 -111 -140 -120 -191
-94 -20 11 -88 13 -328 9 l-303 -4 -34 23 c-20 15 -52 56 -78 104 -25 44 -121
213 -213 375 -92 162 -170 303 -173 312 -4 11 6 32 29 59 31 37 34 47 29 79
-10 60 3 64 168 56 207 -11 292 -28 437 -91 174 -74 228 -89 335 -89 147 0
260 49 384 167 28 27 51 55 51 63 0 20 -46 18 -122 -7 -50 -16 -100 -21 -244
-26 l-181 -6 -199 68 c-109 37 -220 79 -246 91 -57 29 -109 30 -167 4 -24 -11
-54 -20 -68 -20 -29 0 -75 -23 -124 -61 -37 -29 -64 -36 -85 -21 -13 9 -100
133 -106 152 -3 8 -1 23 4 33 9 18 163 99 209 110 35 9 83 -6 121 -38 52 -44
71 -34 171 90 48 61 102 125 119 143 34 38 32 38 162 4z m-3815 -83 c25 -11
71 -22 104 -26 37 -4 61 -11 64 -20 14 -35 -47 -93 -97 -93 -27 0 -81 53 -115
113 -31 54 -24 58 44 26z m7691 -73 c0 -34 -34 -55 -102 -61 -63 -7 -68 -6
-92 18 -49 50 -38 57 84 57 87 0 110 -3 110 -14z m-5056 -36 c195 -46 211 -55
309 -172 33 -40 89 -104 123 -142 67 -74 86 -118 61 -143 -21 -22 -51 -2 -88
57 -25 41 -66 80 -84 80 -14 0 -3 -65 15 -87 24 -31 26 -51 5 -59 -20 -8 -60
19 -81 56 -22 36 -50 42 -40 8 4 -13 10 -40 13 -60 5 -33 4 -36 -15 -31 -11 2
-30 16 -43 29 -31 33 -39 30 -39 -16 0 -37 -2 -40 -19 -31 -10 6 -47 55 -80
110 -70 113 -124 167 -175 176 -111 21 -450 -125 -495 -213 -27 -52 -78 -98
-131 -118 -25 -9 -95 -19 -157 -22 -117 -7 -147 -18 -124 -46 27 -32 172 -26
316 15 43 12 100 66 147 137 51 78 145 101 401 102 116 0 119 0 144 -27 14
-16 43 -56 64 -91 29 -46 49 -67 76 -78 39 -17 46 -16 203 31 77 23 98 13 152
-77 121 -198 410 -706 415 -730 5 -26 5 -26 -73 -33 -53 -5 -88 -14 -107 -27
-17 -12 -36 -18 -50 -14 -54 13 -343 241 -445 350 -49 53 -191 259 -205 299
-3 7 -15 1 -30 -15 -29 -31 -43 -33 -131 -17 -52 9 -75 8 -161 -11 -55 -12
-140 -28 -190 -36 -49 -8 -119 -21 -155 -30 -40 -10 -126 -18 -220 -21 -149
-4 -161 -3 -294 29 -157 37 -174 49 -183 131 -7 55 5 90 52 162 54 80 131 154
263 252 301 223 436 285 720 333 150 25 193 24 336 -10z m4246 -34 c138 -17
147 -20 165 -57 21 -39 19 -73 -7 -122 -15 -31 -23 -69 -28 -146 -8 -122 -14
-130 -99 -132 -144 -4 -270 2 -373 15 -62 8 -165 18 -228 21 -451 24 -515 36
-707 131 -73 36 -156 72 -185 80 -29 7 -219 30 -423 49 -443 43 -535 62 -535
114 0 23 28 48 60 54 14 2 525 5 1135 6 909 1 1132 -2 1225 -13z m-3912 -12
c28 -20 28 -28 -3 -42 -21 -10 -27 -8 -39 10 -11 16 -13 25 -4 35 13 17 19 16
46 -3z m-1116 -2 c12 -5 -10 -23 -87 -71 -131 -81 -259 -175 -355 -261 -41
-37 -84 -70 -95 -73 -11 -3 -137 -11 -280 -18 -428 -19 -532 8 -743 198 -85
77 -91 163 -14 195 83 34 132 36 847 36 391 1 718 -2 727 -6z m-1682 -37 c7
-9 10 -27 6 -45 -16 -84 44 -190 139 -246 54 -31 62 -49 27 -62 -41 -16 -688
-59 -1037 -69 -194 -5 -203 -5 -300 21 -222 60 -352 156 -380 284 -11 50 12
76 87 97 59 18 106 19 673 18 515 -2 647 1 761 16 6 0 17 -6 24 -14z m8595 -4
c133 -8 173 -21 193 -64 23 -49 7 -95 -51 -150 -113 -106 -237 -170 -389 -201
-96 -20 -184 -20 -363 -1 -77 9 -223 20 -325 25 -295 15 -340 20 -359 39 -14
14 -111 324 -111 354 0 9 1246 8 1405 -2z m-10203 -99 c4 -55 13 -83 32 -113
37 -55 96 -119 110 -119 6 0 22 -7 35 -17 23 -15 23 -17 6 -30 -13 -9 -51 -13
-120 -13 -56 0 -261 -11 -456 -25 -527 -38 -857 -48 -908 -30 -92 32 -245 120
-302 172 -73 68 -92 117 -65 167 21 39 61 64 118 75 24 4 381 8 793 7 l750 -1
7 -73z m12067 58 c73 -10 106 -34 116 -86 9 -52 -17 -95 -98 -160 -141 -113
-297 -165 -497 -167 -200 -2 -867 33 -1129 59 -167 16 -193 25 -165 55 10 11
22 19 29 19 22 0 94 71 114 114 12 24 24 73 28 110 l6 66 766 0 c421 0 795 -5
830 -10z m-7029 -134 c30 -13 109 -49 176 -80 155 -72 230 -84 420 -66 242 23
234 23 234 7 0 -17 -154 -71 -247 -86 -84 -13 -173 1 -286 45 -51 20 -150 57
-222 82 -129 47 -131 47 -259 47 -90 0 -130 4 -133 12 -6 16 28 32 100 48 94
20 154 18 217 -9z m-1106 -20 c66 -28 53 -36 -58 -36 -85 0 -104 3 -100 14 13
34 99 47 158 22z m-1899 -227 c105 -31 262 -35 486 -14 104 10 191 16 194 13
3 -3 -17 -49 -46 -103 -40 -75 -58 -100 -83 -110 -18 -8 -110 -18 -221 -25
l-190 -11 -106 35 c-169 55 -259 107 -301 174 -11 18 -19 35 -16 37 8 8 105
23 158 24 30 0 87 -8 125 -20z m-375 1 c5 0 25 -21 45 -47 20 -27 64 -70 97
-97 33 -26 56 -52 51 -56 -10 -10 -208 -40 -262 -40 -21 0 -113 -14 -205 -30
-231 -42 -638 -83 -746 -76 -143 9 -284 57 -398 134 -44 31 -66 54 -88 96 -27
52 -28 55 -11 74 21 23 80 42 131 42 19 0 75 -12 123 -26 120 -35 260 -41 526
-21 117 9 307 22 422 28 116 6 226 14 245 19 19 4 41 6 48 4 8 -2 18 -4 22 -4z
m8675 -19 c49 -8 56 -31 26 -88 -65 -127 -304 -243 -501 -243 -30 0 -177 16
-325 35 -149 19 -337 41 -420 50 -206 21 -197 18 -178 55 13 28 13 36 -5 93
-21 66 -17 91 17 102 21 6 491 -20 621 -35 47 -5 144 -10 215 -10 112 0 146 4
245 30 117 30 178 32 305 11z m-1511 -4 c23 -17 12 -43 -26 -56 -43 -15 -79
-13 -103 5 -20 15 -20 16 8 40 31 27 91 33 121 11z m-8788 -22 c28 -12 40 -26
65 -82 18 -40 49 -88 76 -115 26 -26 45 -50 42 -52 -4 -4 -950 -121 -1181
-146 -141 -15 -215 -12 -302 10 -97 24 -173 65 -256 135 -93 79 -104 106 -74
171 35 74 122 98 241 65 178 -48 329 -47 878 4 303 28 461 31 511 10z m10699
5 c94 -5 267 -17 385 -25 467 -33 513 -35 581 -20 213 47 227 49 282 36 56
-12 121 -57 132 -91 8 -24 -22 -82 -70 -137 -42 -49 -116 -88 -264 -138 l-104
-36 -166 16 c-939 90 -1153 115 -1244 141 -14 5 -5 15 43 48 69 48 103 92 120
157 7 24 17 47 24 51 15 10 79 10 281 -2z m-1870 -121 c4 -13 2 -26 -6 -34
-21 -20 -135 -34 -175 -22 -38 12 -43 26 -16 50 21 18 48 24 129 26 55 1 62
-1 68 -20z m-6755 -132 c49 -23 196 -135 188 -142 -2 -2 -203 -40 -448 -84
-245 -45 -481 -91 -525 -103 -67 -19 -106 -22 -240 -22 -148 0 -166 2 -233 26
-125 45 -246 129 -257 179 -6 24 -3 27 32 32 21 4 65 7 98 7 85 0 374 33 695
80 375 54 420 59 535 56 85 -2 108 -6 155 -29z m6174 24 c12 -19 -7 -41 -69
-81 -71 -46 -112 -61 -265 -93 -119 -25 -112 -25 -470 24 -228 32 -295 48
-287 71 5 15 28 15 119 -3 91 -17 309 0 648 50 277 42 316 46 324 32z m-5636
-33 c9 -18 29 -45 44 -60 25 -27 31 -28 116 -28 86 0 152 -13 152 -30 0 -40
-292 -48 -445 -13 -116 27 -198 58 -235 90 -17 13 -30 28 -30 31 0 4 37 8 83
9 45 2 120 9 167 17 127 21 129 20 148 -16z m6183 22 c46 -25 7 -61 -67 -62
-52 -1 -78 16 -64 42 15 27 94 39 131 20z m-411 -65 c37 -54 57 -65 135 -80
51 -10 60 -14 57 -31 -6 -37 -12 -44 -36 -44 -24 0 -367 57 -372 62 -5 6 159
138 172 138 7 0 27 -20 44 -45z m690 20 c181 -31 564 -75 654 -75 127 0 156
-6 156 -35 0 -30 -104 -114 -191 -155 -154 -71 -254 -75 -589 -21 -232 37
-224 31 -214 180 7 119 17 137 69 126 17 -3 68 -12 115 -20z m-8717 -29 c25
-7 58 -23 72 -34 40 -32 196 -225 188 -232 -10 -9 -1026 -193 -1218 -221 -212
-31 -287 -17 -434 81 -162 110 -191 154 -139 215 22 25 35 28 323 66 165 21
458 57 650 79 193 22 377 44 410 49 87 13 97 12 148 -3z m10172 -36 c226 -28
489 -61 585 -75 96 -13 231 -29 300 -35 174 -14 188 -17 206 -45 41 -63 -20
-149 -153 -218 -142 -73 -189 -85 -347 -91 -136 -5 -145 -4 -310 33 -166 38
-524 109 -755 151 -63 11 -140 20 -172 20 -54 0 -109 15 -109 29 0 17 33 51
49 51 22 0 80 62 114 122 36 63 100 105 162 107 11 1 205 -22 430 -49z m-6571
26 c72 -30 58 -58 -37 -74 -40 -7 -238 -51 -442 -99 -487 -113 -531 -114 -759
-18 -34 14 -37 18 -24 31 14 14 228 49 453 74 55 6 206 31 335 55 258 47 411
58 474 31z m2608 -7 c119 -18 169 -20 302 -15 l160 6 235 -51 c130 -28 289
-58 354 -68 111 -17 137 -25 125 -36 -2 -3 -51 -22 -109 -42 -101 -36 -108
-37 -244 -38 l-140 0 -380 97 c-209 53 -407 100 -440 104 -66 7 -85 17 -85 45
0 25 38 25 222 -2z m2208 -48 c0 -15 -9 -20 -42 -24 -45 -4 -76 12 -64 32 4 6
29 11 57 11 41 0 49 -3 49 -19z m-2287 -67 c352 -89 816 -194 855 -194 58 0
52 -17 -18 -52 -98 -49 -171 -63 -320 -62 -153 1 -141 -2 -567 136 -209 68
-253 85 -253 100 0 10 20 39 45 63 56 56 69 57 258 9z m-2413 16 c10 -5 35
-33 55 -61 37 -50 37 -51 19 -69 -19 -19 -283 -101 -534 -166 l-135 -35 -145
9 c-136 8 -150 11 -214 43 -39 19 -71 39 -73 44 -2 7 33 16 84 23 122 18 278
53 515 118 159 44 314 83 406 103 2 1 12 -3 22 -9z m4750 -40 c0 -108 -78
-368 -161 -537 -103 -209 -295 -462 -502 -660 -112 -107 -201 -175 -390 -302
-119 -79 -358 -221 -374 -221 -2 0 -122 -59 -265 -131 -233 -116 -395 -183
-495 -204 -74 -15 -22 16 175 105 407 183 617 301 846 475 435 329 756 757
902 1204 19 57 39 137 45 177 6 40 17 81 24 91 12 17 98 38 168 42 25 1 27 -2
27 -39z m-6288 6 c63 -26 188 -97 188 -107 0 -4 -109 -34 -242 -68 -134 -33
-385 -98 -558 -143 l-315 -82 -135 2 c-205 2 -320 38 -421 129 -58 53 -53 63
36 63 59 0 78 4 92 19 15 15 39 19 128 24 74 4 208 25 415 66 559 111 605 119
680 120 57 0 88 -5 132 -23z m5623 10 c253 -45 360 -68 372 -77 17 -15 16 -59
-3 -126 -20 -67 -43 -93 -87 -93 -18 0 -160 32 -316 70 -155 39 -298 70 -317
70 -19 0 -49 7 -66 16 l-30 16 48 35 c69 49 96 62 177 83 88 23 120 24 222 6z
m-1849 -186 c97 -33 226 -72 287 -86 119 -29 137 -37 137 -63 0 -14 12 -16 73
-17 39 0 113 -4 162 -8 76 -7 96 -6 122 8 49 25 98 20 183 -19 89 -40 875
-288 964 -304 33 -6 62 -13 64 -16 3 -3 -5 -16 -17 -29 -29 -30 -143 -56 -281
-63 -162 -8 -238 14 -850 252 -118 46 -244 91 -280 100 -69 18 -140 52 -140
68 0 6 -36 8 -90 5 -149 -9 -233 5 -418 67 -92 31 -171 61 -176 66 -14 13 20
78 46 89 33 13 24 15 214 -50z m-3389 4 c18 -7 54 -33 80 -57 27 -24 63 -52
82 -62 30 -15 32 -18 18 -32 -8 -9 -201 -71 -429 -138 -227 -67 -451 -134
-498 -149 -159 -51 -193 -56 -314 -45 -134 11 -227 37 -292 82 -56 38 -85 84
-63 98 8 5 34 11 59 14 54 7 937 224 1100 271 164 46 184 48 257 18z m1371 -1
c30 -23 39 -54 20 -70 -7 -6 -89 -32 -181 -58 l-168 -46 -125 7 c-68 4 -127
10 -129 15 -11 17 49 44 245 110 226 75 284 82 338 42z m4842 -3 c91 -16 191
-30 222 -30 31 0 59 -4 62 -9 10 -15 -84 -92 -149 -122 -99 -47 -177 -62 -316
-63 -136 -1 -165 8 -156 48 12 50 60 173 75 189 21 24 70 22 262 -13z m-8250
-13 c27 -13 61 -43 85 -74 22 -29 61 -69 88 -88 26 -20 47 -40 47 -45 0 -12
-67 -31 -285 -79 -99 -22 -326 -76 -505 -120 -461 -113 -518 -124 -615 -117
-127 11 -326 86 -378 144 -9 10 -23 37 -32 61 -18 52 -9 75 37 90 18 6 204 40
413 76 209 36 486 86 615 110 382 72 393 74 440 69 25 -2 65 -14 90 -27z
m6854 4 c61 -16 237 -60 391 -96 154 -37 290 -74 303 -81 12 -8 22 -24 22 -38
0 -32 -94 -222 -114 -229 -9 -4 -150 36 -314 89 -163 52 -382 120 -487 150
-104 31 -196 62 -204 69 -17 17 -8 31 32 51 18 9 51 32 74 51 89 72 134 77
297 34z m2151 -10 c131 -32 1111 -211 1154 -211 64 0 110 -18 117 -46 9 -35
-33 -112 -82 -150 -56 -42 -212 -92 -331 -105 l-98 -11 -205 46 c-448 102
-1105 272 -1105 286 0 7 18 23 40 34 24 13 55 44 81 81 27 38 58 68 86 83 39
22 52 23 148 19 58 -3 146 -14 195 -26z m-3818 -92 c19 -12 31 -25 26 -29 -11
-10 -203 -53 -209 -47 -3 3 1 18 9 34 39 74 98 89 174 42z m-1641 -13 c33 -29
36 -35 22 -41 -26 -10 -89 7 -102 28 -9 15 -7 21 8 33 27 19 27 19 72 -20z
m-1094 -50 c50 -11 85 -12 135 -5 154 22 188 22 202 5 20 -24 6 -34 -80 -56
-41 -10 -105 -32 -143 -49 -38 -17 -132 -54 -210 -82 -78 -28 -232 -86 -344
-130 -237 -93 -299 -109 -444 -109 -87 0 -122 5 -187 25 -92 29 -131 55 -109
72 7 6 189 64 403 128 215 63 442 134 505 156 63 22 133 44 155 49 22 4 42 8
45 9 3 1 35 -5 72 -13z m1011 -24 c23 -16 42 -33 42 -37 0 -13 -882 -404 -995
-441 -75 -24 -100 -28 -220 -28 -113 -1 -146 3 -206 21 -110 35 -156 85 -104
113 26 14 791 304 886 335 58 20 90 24 190 24 112 0 188 12 254 40 42 18 108
6 153 -27z m1919 17 c41 -16 88 -23 203 -29 102 -6 174 -15 225 -30 106 -30
857 -320 882 -339 20 -17 20 -17 -6 -48 -43 -51 -121 -75 -261 -80 -194 -8
-206 -7 -291 26 -145 57 -967 436 -971 448 -5 15 104 72 139 73 15 0 51 -9 80
-21z m-1668 -63 c40 -17 64 -65 50 -104 -10 -29 -145 -106 -449 -258 l-170
-85 -151 -17 c-144 -15 -155 -15 -218 2 -48 13 -66 23 -64 33 2 9 48 35 103
60 55 25 255 116 445 203 190 87 361 163 380 168 19 6 36 11 38 11 1 1 17 -5
36 -13z m1334 -15 c31 -11 194 -81 362 -156 167 -75 344 -153 392 -172 90 -36
149 -70 155 -89 2 -6 -15 -19 -37 -29 -34 -15 -56 -17 -153 -12 -146 9 -250
35 -362 93 -49 26 -169 86 -266 134 -124 63 -185 99 -207 124 -31 35 -50 95
-37 115 10 17 90 13 153 -8z m-964 3 c23 -9 171 -273 160 -284 -22 -22 -171
-33 -286 -22 -137 14 -150 23 -156 111 -5 71 10 121 50 167 l30 34 93 0 c51 0
100 -3 109 -6z m705 -7 c34 -17 57 -60 72 -134 15 -74 7 -106 -34 -137 -27
-20 -43 -21 -261 -24 -215 -3 -233 -2 -249 16 -32 35 -156 264 -150 278 7 19
585 20 622 1z m4003 -108 c836 -200 846 -203 886 -254 35 -45 29 -72 -32 -131
-42 -41 -68 -57 -119 -73 -101 -31 -219 -45 -326 -38 -109 8 -153 18 -365 88
-195 65 -775 244 -845 261 -64 15 -76 33 -29 43 24 5 59 34 128 106 95 99 122
117 172 118 14 1 253 -53 530 -120z m-8332 96 c47 -10 69 -20 80 -36 8 -13 34
-49 58 -81 39 -54 54 -66 106 -83 19 -6 19 -6 -1 -26 -13 -13 -64 -31 -139
-50 -149 -38 -519 -150 -771 -234 -215 -71 -317 -90 -438 -80 -175 14 -285 54
-351 127 -41 46 -44 85 -11 124 21 24 61 36 348 110 1052 272 984 258 1119
229z m7520 -5 c50 0 80 -17 80 -46 0 -23 -40 -55 -122 -98 -56 -30 -80 -38
-101 -32 -37 9 -35 39 9 111 38 65 52 77 72 70 8 -3 35 -5 62 -5z m-2662 -370
c45 -28 82 -55 82 -60 0 -30 -164 -44 -250 -21 -148 40 -150 41 -150 69 0 18
-14 39 -45 68 -49 45 -55 69 -28 114 l17 29 145 -74 c80 -41 183 -97 229 -125z
m-1574 159 c17 -40 9 -78 -18 -89 -29 -11 -53 -40 -61 -73 -4 -16 -17 -34 -29
-41 -20 -12 -272 -46 -342 -46 -35 0 -53 26 -32 46 18 17 440 234 456 234 7 0
19 -14 26 -31z m-2687 -49 c127 -9 136 -11 199 -46 57 -32 64 -39 51 -51 -8
-8 -268 -111 -578 -229 l-564 -215 -150 4 c-170 5 -248 24 -332 80 -54 36 -67
72 -36 99 10 8 209 72 443 142 234 69 488 148 565 175 156 56 170 57 402 41z
m7293 -144 c267 -85 531 -168 586 -185 65 -20 104 -37 108 -47 7 -19 -63 -93
-113 -118 -38 -20 -215 -46 -311 -46 -114 0 -191 24 -607 188 -271 106 -379
153 -381 165 -2 9 6 29 18 45 11 15 35 49 53 77 37 57 65 75 122 75 24 0 230
-60 525 -154z m-3476 62 c65 -14 88 -36 67 -62 -12 -14 -48 -16 -269 -16 -224
0 -258 2 -274 17 -28 25 -23 61 10 69 15 3 32 8 37 10 22 9 374 -6 429 -18z
m-576 -5 c12 -10 24 -30 28 -46 l6 -27 -302 2 c-272 3 -304 5 -313 20 -9 13
-7 22 7 37 22 24 51 26 347 29 184 2 209 0 227 -15z m-2346 -52 c111 -70 121
-78 114 -90 -4 -5 -75 -36 -159 -69 -184 -73 -255 -104 -602 -265 -318 -148
-379 -167 -565 -174 -157 -6 -185 -1 -290 59 -70 40 -75 46 -78 79 -3 32 2 41
41 75 24 22 71 49 103 61 372 136 788 295 824 314 42 22 56 24 195 24 134 0
155 3 195 22 71 35 122 27 222 -36z m4944 39 c63 -16 108 -20 219 -19 132 1
140 0 157 -21 10 -12 18 -26 18 -31 0 -5 -31 -43 -70 -85 -38 -41 -70 -79 -70
-84 0 -5 -12 -22 -26 -39 -41 -50 -73 -44 -301 55 -253 110 -247 107 -190 132
25 11 65 38 89 60 65 59 66 59 174 32z m-761 -96 c68 -17 138 -27 220 -31 113
-5 125 -7 205 -44 47 -22 161 -72 254 -112 93 -39 174 -80 180 -89 21 -34
-156 -188 -215 -188 -15 0 -92 34 -171 75 -79 42 -259 134 -400 205 -141 71
-259 134 -263 140 -8 13 40 58 68 63 12 2 22 5 22 6 0 0 45 -11 100 -25z
m-3445 -6 c19 -13 35 -27 36 -33 2 -5 -176 -99 -394 -207 -218 -108 -451 -229
-517 -268 -66 -39 -156 -83 -200 -97 -74 -25 -93 -27 -245 -28 -152 0 -169 2
-212 23 -25 13 -54 35 -63 49 -16 24 -16 26 1 43 11 9 123 61 249 115 127 54
338 147 470 207 296 135 389 168 481 169 38 0 112 11 164 24 128 30 188 31
230 3z m555 -36 l60 -29 -85 -55 c-106 -69 -735 -455 -931 -571 -129 -78 -155
-89 -230 -103 -61 -12 -113 -15 -192 -10 -142 7 -191 34 -203 108 -5 29 -2 38
20 55 14 11 173 96 353 188 181 93 435 224 566 292 236 122 238 123 340 137
170 23 232 21 302 -12z m423 -38 c9 -43 9 -61 -1 -80 -7 -13 -143 -121 -302
-241 -160 -120 -339 -257 -399 -305 -175 -140 -345 -210 -511 -212 -69 -1 -88
3 -135 27 -63 32 -80 50 -73 77 3 13 138 100 377 246 513 314 714 442 726 464
6 11 20 25 32 31 19 10 206 45 259 48 12 1 19 -14 27 -55z m738 32 c8 -11 14
-30 14 -43 l0 -23 -333 0 c-285 0 -336 2 -355 16 -28 20 -28 52 1 64 12 5 161
8 340 7 303 -2 319 -3 333 -21z m512 4 c40 -24 43 -56 6 -70 -14 -6 -114 -10
-221 -10 -220 0 -233 4 -233 67 l0 33 208 0 c189 0 210 -2 240 -20z m208 0
c55 -11 112 -25 129 -30 16 -6 265 -160 552 -343 478 -303 523 -334 521 -357
-4 -36 -179 -125 -246 -125 -64 0 -210 73 -361 181 -201 144 -683 518 -703
545 -16 22 -18 35 -12 87 3 34 10 62 14 62 4 0 52 -9 106 -20z m627 6 c96 -16
104 -20 687 -323 215 -112 266 -142 268 -160 3 -19 -20 -38 -143 -120 -133
-87 -150 -96 -174 -86 -14 5 -170 103 -346 218 -176 114 -399 257 -495 318
-96 60 -179 113 -184 117 -10 9 26 30 69 41 52 12 227 9 318 -5z m2147 -136
c168 -61 316 -116 330 -123 35 -17 63 -79 55 -118 -9 -38 -79 -91 -155 -116
-64 -21 -208 -23 -310 -4 -158 30 -481 164 -488 204 -4 21 223 267 247 267 9
0 154 -50 321 -110z m-3419 -17 c10 -10 21 -30 24 -45 l7 -28 -389 0 c-289 0
-392 3 -401 12 -17 17 -15 54 5 74 16 16 46 17 377 11 331 -5 360 -7 377 -24z
m443 6 c28 -22 34 -53 14 -66 -19 -11 -336 -5 -359 8 -22 11 -43 55 -33 70 3
5 83 9 178 9 160 0 175 -2 200 -21z m-1259 -83 c18 -13 18 -18 7 -48 -17 -48
-15 -64 10 -98 19 -26 20 -33 9 -69 -17 -59 -100 -178 -173 -247 -118 -114
-254 -185 -430 -226 -79 -19 -99 -20 -146 -10 -59 12 -102 44 -102 74 0 20
115 113 475 385 132 100 256 197 274 217 39 40 48 43 76 22z m1442 -48 c37
-29 185 -144 328 -257 143 -112 290 -223 326 -246 36 -24 69 -51 73 -60 16
-43 -36 -78 -136 -90 -117 -15 -309 52 -449 155 -98 74 -209 195 -247 272 -38
77 -39 87 -12 121 22 28 25 55 10 106 -19 69 16 69 107 -1z m-555 -15 c32 -29
41 -52 27 -69 -11 -13 -68 -15 -422 -12 l-409 3 -19 24 c-16 19 -26 56 -16 63
4 3 703 15 760 12 40 -1 65 -8 79 -21z m385 -4 c16 -14 17 -43 1 -57 -7 -5
-53 -14 -103 -19 -137 -15 -194 7 -195 74 0 6 8 14 18 17 30 9 265 -4 279 -15z
m-4629 -31 c17 -17 15 -48 -3 -48 -9 0 -30 7 -47 16 l-32 16 25 14 c30 17 42
17 57 2z m8123 -6 c42 -21 179 -129 179 -141 0 -5 -33 0 -72 11 -71 19 -103
19 -202 2 -37 -7 -38 -6 -31 17 4 13 17 48 30 77 27 58 40 63 96 34z m-1017
-78 c146 -65 168 -80 156 -112 -11 -27 -36 -37 -162 -64 -95 -20 -103 -20
-222 -5 -112 14 -166 30 -166 49 0 9 202 183 220 191 21 7 39 1 174 -59z
m-3484 -39 c0 -14 -9 -44 -21 -67 -29 -57 -47 -120 -60 -213 -5 -44 -35 -170
-66 -280 -46 -165 -57 -218 -60 -302 -5 -95 -7 -103 -26 -103 -24 0 -103 63
-112 89 -3 11 1 48 10 83 21 81 197 570 241 669 19 42 34 85 34 94 0 22 28 55
47 55 7 0 13 -11 13 -25z m529 0 c15 -16 22 -45 30 -130 12 -121 26 -505 26
-712 0 -149 -7 -168 -81 -210 -88 -50 -169 -39 -233 33 -59 67 -63 97 -51 362
13 313 30 603 35 629 11 48 30 55 147 51 91 -3 111 -6 127 -23z m453 8 c28
-32 358 -702 358 -727 0 -28 -33 -56 -66 -56 -27 0 -67 37 -93 87 -28 55 -136
327 -178 448 -19 55 -48 124 -64 154 -32 59 -35 81 -17 99 17 17 42 15 60 -5z
m-1092 -10 c0 -9 -7 -24 -15 -33 -16 -17 -226 -595 -250 -687 -8 -31 -15 -69
-15 -83 0 -36 -19 -100 -30 -100 -18 0 -83 65 -96 97 -29 69 -23 87 162 451
97 191 181 353 186 360 16 18 58 15 58 -5z m296 -406 c-9 -210 -22 -403 -28
-428 -9 -40 -8 -57 11 -117 27 -89 26 -98 -5 -106 -37 -10 -88 26 -114 78 -28
58 -27 118 5 296 15 80 31 190 36 245 14 154 59 407 76 435 l16 24 10 -22 c7
-16 5 -143 -7 -405z m666 406 c13 -16 118 -270 118 -286 0 -4 -6 -7 -13 -7
-26 0 -147 235 -147 286 0 28 20 32 42 7z m-756 -25 c-3 -18 -11 -78 -17 -133
-6 -55 -19 -143 -29 -195 -54 -275 -64 -363 -63 -522 1 -87 -1 -158 -3 -158
-3 0 -19 6 -37 14 -43 18 -84 67 -98 118 -10 38 -3 74 90 452 56 226 106 421
111 434 6 13 18 22 30 22 18 0 20 -5 16 -32z m554 12 c16 -16 20 -33 20 -88 0
-38 23 -210 51 -383 32 -192 52 -349 53 -403 l1 -89 -53 -44 c-57 -47 -102
-57 -102 -24 0 11 7 47 16 80 11 44 14 91 11 164 -2 56 -9 237 -16 402 -6 165
-15 320 -20 345 -13 64 1 78 39 40z m88 8 c6 -7 59 -188 118 -403 123 -443
128 -482 81 -553 -24 -37 -88 -82 -117 -82 -23 0 -27 43 -8 76 18 31 18 35 -2
220 -31 285 -48 404 -81 572 -17 85 -28 160 -25 168 7 17 20 18 34 2z m-4265
-99 c10 -30 21 -77 24 -106 5 -49 4 -52 -19 -58 -24 -6 -239 65 -263 87 -13
12 12 28 46 28 38 0 122 46 148 81 12 16 28 28 34 26 7 -2 20 -28 30 -58z
m7239 -26 c-16 -58 -155 -438 -191 -523 -18 -41 -62 -129 -98 -195 -256 -466
-573 -831 -986 -1136 -138 -102 -300 -205 -339 -214 -43 -11 -74 31 -188 257
-88 174 -103 211 -106 263 -7 87 0 93 80 67 86 -29 139 -63 176 -114 50 -68
63 -130 54 -263 -7 -112 -6 -115 14 -115 23 0 84 75 120 146 63 124 69 300 16
414 -42 87 -84 126 -248 228 -213 133 -275 198 -317 333 -24 77 -26 201 -4
223 9 9 35 20 58 26 23 6 66 20 95 31 82 30 131 26 188 -16 205 -146 357 -199
606 -211 145 -6 194 -22 241 -73 43 -48 105 -157 123 -218 25 -83 34 -83 67
-1 71 176 29 368 -109 498 -79 74 -137 97 -337 131 -189 32 -229 43 -248 65
-16 20 1 33 126 95 117 57 183 73 256 59 88 -17 139 -12 224 23 77 31 81 34
110 89 19 37 39 61 55 66 15 6 64 4 125 -4 71 -9 124 -10 183 -4 46 5 96 7
111 4 24 -5 34 2 82 59 58 69 78 72 61 10z m-7105 27 c29 -17 36 -33 73 -152
118 -381 169 -517 271 -719 196 -392 431 -711 760 -1035 221 -216 422 -374
666 -525 65 -40 129 -83 142 -95 23 -22 24 -24 7 -48 -9 -14 -24 -26 -33 -26
-39 0 -390 232 -583 386 -163 130 -493 458 -609 605 -302 385 -495 738 -655
1199 -51 146 -119 398 -112 415 7 20 35 19 73 -5z m7652 -92 c-49 -184 -152
-483 -218 -633 -328 -739 -862 -1350 -1561 -1785 -131 -81 -181 -98 -194 -64
-11 28 12 50 111 109 654 388 1176 958 1517 1660 68 139 92 202 155 415 126
417 122 410 181 410 l39 0 -30 -112z m-7202 72 c6 -14 33 -92 58 -175 146
-470 392 -893 749 -1288 185 -205 455 -429 724 -601 110 -71 122 -81 122 -107
0 -36 -33 -71 -57 -62 -61 22 -313 194 -492 334 -137 108 -423 393 -535 534
-276 347 -471 712 -616 1155 -72 217 -72 222 -40 231 44 13 74 6 87 -21z
m6813 10 c12 -23 -3 -86 -68 -280 -118 -350 -308 -712 -522 -997 -130 -174
-451 -507 -610 -635 -163 -130 -480 -338 -515 -338 -40 0 -69 53 -47 86 4 6
56 41 117 78 402 246 769 591 1038 978 190 273 357 611 452 913 56 180 60 191
82 204 29 17 61 13 73 -9z m-7005 -20 c17 -16 39 -69 71 -169 65 -204 123
-348 219 -546 296 -607 716 -1073 1320 -1467 159 -104 182 -139 135 -216 -34
-56 -62 -48 -254 78 -309 203 -531 387 -735 610 -352 384 -595 775 -771 1240
-56 148 -140 416 -140 447 0 55 105 70 155 23z m7619 -93 c33 -23 24 -39 -31
-55 -36 -11 -94 -5 -122 12 -14 9 -14 79 0 129 l10 39 58 -54 c32 -29 70 -61
85 -71z m-364 90 c0 -13 -13 -70 -30 -128 -129 -456 -342 -889 -617 -1252
-178 -235 -473 -538 -693 -713 -210 -167 -507 -359 -536 -347 -20 7 -64 96
-64 128 0 20 10 32 46 53 121 72 350 229 449 308 142 113 452 423 590 589 285
345 476 711 605 1160 63 220 67 225 176 225 71 0 74 -1 74 -23z m-6913 -73
c98 -131 205 -204 327 -224 70 -11 113 -6 216 25 43 13 119 25 177 29 57 4
140 13 185 21 120 22 124 21 171 -31 47 -52 105 -83 155 -84 l33 0 -18 -31
c-10 -17 -44 -61 -77 -98 -102 -115 -153 -219 -205 -418 -30 -112 -125 -176
-286 -193 -135 -15 -145 -17 -145 -38 0 -23 33 -54 87 -81 133 -67 320 -68
448 -3 117 58 180 137 221 274 43 139 106 231 205 297 80 53 148 78 312 111
158 33 247 72 344 150 34 28 69 50 77 50 20 0 56 -48 56 -74 0 -48 -113 -194
-217 -279 -41 -34 -95 -88 -120 -121 -60 -79 -147 -261 -174 -361 -26 -98 -36
-300 -20 -400 15 -102 4 -136 -74 -212 -47 -46 -87 -73 -159 -108 -53 -25 -96
-52 -96 -59 0 -18 44 -36 89 -36 70 0 89 -39 47 -95 -15 -20 -16 -20 -82 14
-155 80 -475 329 -654 510 -351 355 -576 681 -751 1086 -60 140 -161 434 -153
447 11 17 29 1 81 -68z m5843 47 c32 -62 -19 -131 -110 -150 -102 -20 -190
-19 -190 3 0 16 246 166 272 166 10 0 22 -9 28 -19z m-5340 -110 c22 -33 40
-64 40 -70 0 -39 -157 -46 -254 -12 -70 25 -133 60 -160 90 l-19 21 99 -6 c83
-5 109 -3 159 14 33 11 68 20 77 21 10 1 33 -23 58 -58z m3610 -133 c0 -23
-27 -35 -48 -22 -22 14 -75 111 -67 124 9 14 115 -80 115 -102z m-4803 70 c7
-6 22 -35 33 -65 16 -42 18 -59 9 -69 -9 -12 -16 -11 -38 5 -40 29 -74 34
-131 22 -83 -18 -88 -3 -18 54 93 76 108 81 145 53z m3051 -45 c-18 -37 -63
-59 -84 -42 -13 11 -8 19 38 60 44 39 54 44 56 28 2 -10 -3 -31 -10 -46z
m1440 -115 c173 -317 175 -323 123 -394 -64 -87 -120 -111 -113 -49 12 107 4
161 -53 340 -50 161 -78 285 -62 285 3 0 50 -82 105 -182z m3376 87 c54 -60
65 -78 58 -92 -9 -15 -23 -17 -104 -14 -51 1 -95 5 -97 7 -8 7 29 150 41 162
21 21 35 13 102 -63z m-5523 -47 c32 -71 85 -83 299 -65 l95 8 -40 -22 c-22
-12 -107 -40 -190 -61 -194 -49 -330 -93 -380 -121 -60 -34 -107 -104 -210
-313 -90 -184 -96 -192 -144 -223 -58 -38 -129 -66 -186 -75 -46 -7 -207 23
-208 39 0 6 24 13 53 18 51 7 143 49 186 85 35 29 51 62 94 185 77 223 177
386 292 475 54 41 92 55 258 90 66 14 65 15 81 -20z m3200 11 l21 -21 -43 -25
c-51 -28 -125 -50 -136 -39 -16 15 31 81 67 93 50 17 67 16 91 -8z m-596 -18
c70 -32 125 -105 125 -165 0 -33 -47 -72 -109 -90 -65 -19 -86 -10 -96 41 -4
20 -18 57 -31 82 -33 62 -31 93 7 125 36 31 51 32 104 7z m380 -95 c0 -14 -14
-26 -52 -41 -74 -29 -84 -42 -54 -64 l23 -18 -59 -16 c-75 -21 -76 -21 -62 5
11 20 8 84 -7 136 l-7 23 109 -3 c100 -3 109 -5 109 -22z m-5215 -94 c17 -40
30 -85 28 -100 -3 -24 -8 -27 -45 -30 -40 -3 -250 32 -261 43 -9 9 11 21 54
33 58 17 120 65 145 113 26 51 33 45 79 -59z m5760 53 c63 -32 113 -44 248
-61 85 -10 132 -22 176 -42 153 -72 258 -237 240 -378 -7 -59 -29 -74 -40 -26
-18 77 -75 139 -187 202 -57 32 -63 33 -185 36 -161 3 -248 25 -407 103 -128
62 -187 103 -179 126 6 15 132 63 179 68 52 5 109 -5 155 -28z m1850 -48 c17
-35 41 -64 73 -87 l47 -35 -57 -19 c-51 -17 -61 -18 -97 -5 -27 9 -45 24 -54
42 -12 25 -11 34 17 92 16 36 34 65 38 65 4 -1 19 -24 33 -53z m-2632 -139 c5
-7 13 -40 17 -73 18 -164 59 -264 145 -354 26 -27 113 -93 193 -145 81 -52
166 -113 191 -136 83 -77 115 -208 81 -337 -21 -77 -43 -113 -57 -89 -5 8 -15
51 -22 96 -25 142 -75 200 -215 250 -147 52 -220 124 -292 292 -23 51 -81 168
-130 259 -49 91 -89 173 -89 183 0 17 13 24 95 49 64 19 70 20 83 5z m-2332
-270 c-206 -424 -262 -532 -270 -519 -13 20 -8 147 8 208 45 173 137 333 267
465 52 54 101 98 107 98 6 0 -44 -114 -112 -252z m-2555 192 c10 -14 22 -40
25 -57 l7 -33 -106 0 -106 0 10 30 c6 16 24 44 40 61 24 26 34 30 70 27 31 -2
47 -10 60 -28z m7504 -76 c30 -47 72 -102 92 -124 20 -22 33 -43 29 -47 -3 -3
-32 14 -65 39 -83 65 -95 70 -172 69 -63 0 -69 1 -69 20 0 29 23 80 54 116 24
28 30 31 51 21 13 -6 49 -48 80 -94z m-2925 81 c7 -9 11 -17 9 -19 -51 -39
-109 -50 -109 -19 0 44 72 71 100 38z m-1799 -56 c33 -28 62 -61 65 -73 3 -13
-37 -128 -112 -316 -163 -414 -167 -425 -159 -471 9 -50 -6 -69 -54 -69 -108
1 -192 97 -178 204 3 25 75 181 189 409 100 202 184 367 186 367 3 0 31 -23
63 -51z m2056 -311 c88 -172 169 -339 178 -370 18 -54 18 -58 0 -104 -23 -61
-79 -122 -132 -146 -61 -27 -78 -15 -87 59 -11 98 -44 207 -107 360 -130 316
-143 355 -144 416 0 55 2 61 38 93 64 59 69 53 254 -308z m-1811 187 c8 -11
14 -28 14 -39 0 -12 -41 -175 -90 -365 -77 -289 -91 -354 -89 -411 1 -37 -1
-72 -5 -79 -4 -6 -25 -11 -47 -11 -99 0 -161 66 -167 179 -3 58 1 77 31 151
19 47 79 209 133 360 53 151 101 281 107 287 7 10 20 5 54 -20 25 -17 52 -41
59 -52z m1429 58 c38 -97 239 -626 260 -687 31 -91 29 -142 -8 -198 -39 -58
-170 -103 -193 -67 -4 7 -6 46 -5 88 1 68 -8 113 -92 421 -107 388 -106 379
-29 429 55 36 58 37 67 14z m-1239 -97 c28 -28 34 -41 34 -77 0 -54 -73 -555
-96 -660 -15 -70 -15 -80 0 -131 9 -31 16 -61 16 -67 0 -7 -23 -11 -59 -11
-79 0 -156 39 -184 93 l-19 38 37 162 c79 346 157 663 167 675 20 24 68 14
104 -22z m1024 16 c17 -14 37 -77 95 -295 105 -396 119 -458 111 -511 -9 -55
-53 -117 -99 -139 -40 -19 -108 -22 -124 -6 -7 7 -9 46 -6 112 4 83 0 126 -20
232 -28 140 -77 476 -77 523 0 33 32 79 64 92 30 12 31 12 56 -8z m-4103 -78
c61 -100 56 -130 -27 -141 -47 -7 -265 17 -253 27 4 4 29 14 55 24 48 18 109
76 141 135 9 18 23 31 30 29 6 -3 31 -36 54 -74z m7176 16 c10 -28 34 -66 54
-86 39 -40 37 -46 -25 -63 -22 -6 -43 -6 -59 0 -39 15 -83 49 -83 64 0 19 73
135 85 135 6 0 18 -23 28 -50z m-3898 14 c64 -30 64 -43 31 -579 -12 -191 -12
-203 8 -268 14 -50 17 -73 9 -85 -24 -40 -168 -19 -219 32 -47 47 -50 85 -25
245 23 142 101 666 101 677 0 10 57 -4 95 -22z m635 14 c0 -6 18 -123 40 -259
59 -363 80 -540 70 -584 -10 -44 -52 -92 -97 -111 -45 -19 -127 -18 -147 2
-20 19 -20 21 0 75 18 52 21 195 6 314 -6 44 -14 178 -17 297 l-7 217 59 30
c62 32 93 38 93 19z m-430 -34 c48 -18 78 -17 151 6 34 10 66 17 71 14 4 -3 8
-58 8 -122 0 -64 5 -249 11 -410 11 -270 10 -296 -6 -338 -23 -60 -73 -94
-153 -101 -34 -3 -74 0 -95 6 -45 15 -93 68 -106 118 -19 67 18 813 41 841 6
7 18 10 27 6 9 -4 32 -13 51 -20z m3617 -198 c15 -19 37 -57 47 -83 32 -80 67
-134 108 -163 21 -16 34 -31 29 -35 -15 -8 -40 7 -107 65 -76 65 -131 86 -187
74 -49 -11 -77 -8 -77 9 0 20 89 165 107 176 22 12 44 1 80 -43z m-6984 -4
c14 -15 36 -87 37 -119 0 -8 -9 -9 -34 -2 -38 10 -109 -1 -157 -26 -15 -8 -33
-15 -39 -15 -16 0 59 138 88 160 31 25 84 26 105 2z m149 -227 c30 -36 58 -88
58 -108 0 -34 -30 -42 -159 -42 -113 0 -130 -2 -164 -22 -40 -24 -67 -29 -67
-14 0 13 37 34 105 61 81 31 124 65 146 114 29 66 35 67 81 11z m6619 8 c1
-10 1 -27 0 -38 -2 -21 18 -53 79 -126 l34 -42 -84 7 c-94 8 -126 23 -136 63
-11 43 54 153 91 153 8 0 15 -8 16 -17z m-6493 -197 c25 -13 102 -97 102 -111
0 -4 -24 -4 -52 0 -47 6 -60 3 -121 -28 -37 -19 -70 -31 -72 -27 -2 4 13 43
34 87 46 96 59 105 109 79z m6374 -13 c16 -16 44 -76 68 -143 33 -92 49 -122
77 -148 27 -24 34 -35 25 -44 -8 -8 -28 6 -79 54 -74 71 -104 90 -173 107 -91
24 -99 30 -89 60 14 38 107 141 128 141 9 0 29 -12 43 -27z m-4530 -77 c20
-19 55 -40 79 -46 24 -7 55 -15 68 -19 14 -4 29 -14 34 -22 7 -11 -38 -136
-158 -445 -177 -453 -193 -490 -232 -542 -25 -34 -89 -72 -121 -72 -48 0 -128
34 -163 69 -45 44 -57 95 -40 161 10 40 439 906 464 938 15 19 31 14 69 -22z
m2697 5 c11 -11 108 -195 216 -408 107 -213 211 -417 230 -452 30 -53 34 -70
29 -100 -16 -83 -64 -154 -121 -177 -42 -18 -115 -18 -156 0 -69 29 -79 50
-267 552 -99 263 -180 482 -180 486 0 9 201 118 218 118 6 0 21 -9 31 -19z
m-4304 -167 c25 -31 45 -62 45 -70 0 -28 -49 -46 -155 -56 -58 -6 -109 -8
-113 -4 -4 5 9 22 30 39 40 35 78 93 78 119 0 9 7 24 16 32 21 22 42 9 99 -60z
m1920 42 c24 -19 57 -37 72 -39 15 -3 45 -8 66 -12 26 -4 37 -11 37 -24 0 -35
-261 -977 -283 -1020 -13 -27 -35 -51 -57 -62 -83 -45 -211 -4 -255 82 -34 64
-24 100 149 559 91 239 170 455 176 480 12 46 26 70 41 70 5 0 29 -15 54 -34z
m2074 7 c5 -10 45 -115 89 -233 44 -118 112 -296 152 -395 89 -221 130 -340
130 -376 0 -123 -138 -207 -275 -165 -56 16 -79 57 -111 194 -15 64 -71 288
-125 496 -111 427 -110 413 -27 434 24 6 63 23 88 36 54 30 66 31 79 9z m1935
-105 c20 -51 36 -97 36 -102 0 -5 -25 -6 -55 -4 -62 5 -100 32 -110 79 -8 36
7 63 53 94 20 14 37 25 39 25 1 0 18 -42 37 -92z m-3716 13 c21 -11 56 -23 77
-27 79 -14 105 -37 105 -91 0 -32 -92 -647 -125 -841 -35 -203 -46 -218 -159
-232 -99 -11 -158 16 -196 91 -27 51 -25 111 4 217 35 124 181 702 201 795 15
67 34 107 51 107 3 0 22 -9 42 -19z m1476 -23 c16 -24 266 -983 266 -1018 0
-72 -106 -160 -191 -160 -52 0 -110 22 -145 56 -31 29 -34 36 -34 90 0 50 -84
609 -134 900 -8 46 -13 91 -9 99 3 9 18 15 37 15 17 1 54 9 81 20 71 26 111
25 129 -2z m-1163 -38 c31 -13 66 -20 115 -20 51 0 73 -4 77 -13 3 -8 1 -63
-4 -123 -5 -60 -18 -299 -28 -532 -16 -340 -23 -428 -35 -447 -8 -13 -40 -35
-71 -50 -44 -22 -65 -26 -100 -22 -54 6 -118 46 -145 90 -25 40 -26 154 -4
272 8 44 37 231 64 415 64 441 61 423 73 438 12 15 7 16 58 -8z m857 -37 c6
-32 41 -247 77 -478 37 -231 71 -437 76 -458 35 -135 -125 -277 -255 -227 -44
16 -105 79 -110 113 -7 41 -41 864 -41 977 l0 85 72 1 c55 1 81 7 105 23 53
34 64 28 76 -36z m-538 12 c33 -19 112 -19 157 0 30 13 39 13 50 2 10 -9 18
-121 33 -437 24 -509 25 -619 6 -664 -45 -108 -188 -133 -311 -55 l-47 30 7
322 c7 346 29 789 40 806 9 15 35 13 65 -4z m-2666 -41 c31 -25 54 -49 51 -54
-2 -4 -26 -11 -52 -15 -70 -10 -113 -31 -160 -78 -24 -22 -43 -39 -43 -36 0
23 62 195 76 210 28 31 66 24 128 -27z m5603 -4 c21 -43 57 -225 51 -258 -2
-11 -15 2 -35 33 -38 59 -86 94 -139 102 -49 7 -74 20 -74 38 0 22 132 136
155 133 12 -2 28 -20 42 -48z m-5418 -166 c33 -25 63 -50 67 -55 21 -34 -52
-89 -145 -108 -73 -15 -129 -42 -175 -81 -25 -22 -40 -30 -47 -23 -7 7 9 26
47 59 110 95 122 111 144 184 13 42 26 70 34 70 8 0 41 -21 75 -46z m5165
-104 c10 -61 17 -113 14 -115 -7 -7 -79 15 -104 32 -31 20 -56 76 -48 108 7
29 76 85 103 85 14 0 20 -22 35 -110z m-4938 -67 c64 -52 67 -47 -35 -73 -28
-7 -61 -28 -92 -57 -27 -25 -52 -43 -56 -39 -9 9 -9 58 1 120 9 60 44 96 92
96 24 0 47 -12 90 -47z m4765 15 c15 -28 37 -265 27 -281 -6 -9 -12 -6 -20 8
-24 40 -85 98 -133 124 -70 38 -69 57 1 120 65 58 105 67 125 29z m-4564 -154
c83 -52 91 -73 46 -116 -37 -34 -60 -45 -119 -58 -27 -5 -59 -12 -71 -15 -22
-5 -22 -5 4 45 18 34 27 71 31 120 4 54 8 70 20 70 8 0 48 -21 89 -46z m4319
-15 c-20 -67 -20 -91 3 -156 10 -29 14 -53 9 -53 -18 0 -111 52 -134 75 -34
34 -32 84 4 117 26 25 124 79 130 73 2 -2 -4 -27 -12 -56z m-4137 -89 c26 -13
45 -65 37 -101 -8 -41 -41 -86 -77 -104 l-29 -16 0 97 c0 77 4 101 17 116 18
21 27 22 52 8z m3931 0 c10 -5 22 -24 25 -42 8 -34 -14 -278 -25 -278 -10 0
-90 173 -90 195 0 37 21 96 41 116 22 22 24 22 49 9z"/>
<path d="M7201 6631 c-36 -10 -36 -26 -1 -41 37 -15 37 -23 3 -49 l-26 -21 22
-24 c32 -34 100 -51 144 -37 68 23 138 126 106 156 -16 14 -209 27 -248 16z
m184 -51 c18 -20 18 -21 -3 -43 -22 -21 -22 -21 -42 -1 -18 18 -19 21 -4 42
19 27 26 27 49 2z"/>
</g>
</svg>
